<svg xmlns="http://www.w3.org/2000/svg" viewBox="0 0 400 400">
  <defs/>
  <g fill-rule="evenodd">
    <path fill="#070505" d="M185.019 47.469c-1.75.092-3.37.319-3.6.505-.23.186-2.129.467-4.219.626-2.09.159-3.98.429-4.2.6-.22.171-1.706.439-3.302.596-1.595.157-2.993.435-3.106.617-.112.182-1.194.455-2.404.606-1.209.151-2.297.433-2.417.628-.12.194-.598.353-1.063.353-1.028 0-15.154 4.709-15.688 5.23-.209.203-.639.37-.956.37-.615 0-1.648.45-7.708 3.356-2.115 1.014-4.05 1.844-4.3 1.844-.251 0-.456.166-.456.368 0 .203-.54.487-1.2.632-.66.145-1.2.424-1.2.62s-.945.819-2.1 1.385c-2.412 1.181-3.203 1.641-4.973 2.894-.701.496-1.357.901-1.46.901-.102 0-1.239.726-2.527 1.613-1.287.887-3.24 2.207-4.34 2.934-1.1.726-2.247 1.62-2.549 1.987-.302.366-.732.666-.955.666-.224 0-1.237.737-2.251 1.638L105 81.141a57.02 57.02 0 01-2.4 1.994c-1.63 1.262-11.4 10.879-11.4 11.221 0 .151-.9 1.161-2 2.244-1.1 1.083-2 2.135-2 2.338 0 .202-.63.962-1.4 1.688-.77.726-1.4 1.448-1.4 1.604 0 .156-.81 1.232-1.8 2.391-.99 1.158-1.8 2.232-1.8 2.385 0 .153-.54.961-1.2 1.794-.66.833-1.2 1.643-1.2 1.8 0 .157-.54.967-1.2 1.8-.66.833-1.2 1.641-1.2 1.796 0 .154-.395.835-.877 1.512-.931 1.308-1.86 2.988-5.025 9.092-1.084 2.09-2.254 4.34-2.599 5-1.074 2.052-2.621 5.553-2.915 6.6-.155.55-.419 1.18-.587 1.4-.167.22-.436 1.03-.597 1.8-.161.77-.431 1.58-.6 1.8-.169.22-.441 1.024-.605 1.787-.163.763-.454 1.708-.646 2.1l-.698 1.426c-.192.392-.483 1.337-.646 2.1-.164.763-.44 1.567-.614 1.787-.174.22-.446 1.3-.604 2.4-.158 1.1-.445 2.198-.637 2.441-.193.242-.466 1.547-.607 2.9-.141 1.352-.39 2.459-.553 2.459-.163 0-.425 1.395-.583 3.1-.158 1.705-.437 3.284-.62 3.509-.184.225-.462 2.886-.619 5.913-.157 3.027-.439 5.598-.627 5.714-.445.276-.446 18.852 0 19.127.187.116.468 2.507.624 5.312.156 2.806.43 5.287.608 5.513.178.227.453 1.762.61 3.412.157 1.65.428 3.18.602 3.4.174.22.441 1.432.594 2.694.152 1.261.421 2.382.596 2.491.176.108.445 1.142.598 2.296.153 1.154.422 2.284.598 2.509.176.226.438 1.183.582 2.127.144.945.439 2.07.655 2.5l.765 1.534c.205.413.495 1.405.645 2.204.15.8.432 1.552.627 1.673 1.547.956.317 2.569-3.345 4.385-5.433 2.694-5.673 2.842-7.982 4.915-1.165 1.046-2.613 2.214-3.218 2.596-.605.382-1.102.915-1.104 1.185-.002.27-.72 1.121-1.596 1.891-.876.77-1.594 1.597-1.596 1.838-.002.241-.364.764-.804 1.162-.44.398-.8.966-.8 1.262 0 .296-.18.538-.4.538-.22 0-.4.197-.4.437s-.36.894-.8 1.454c-.44.559-.8 1.428-.8 1.93s-.135.972-.3 1.046c-.165.073-.635.853-1.044 1.733-.41.88-.893 1.895-1.075 2.255-.182.36-.456 1.759-.609 3.108-.152 1.35-.434 2.551-.625 2.67-.453.28-.453 12.054 0 12.334.191.118.47 1.135.619 2.259.149 1.124.443 2.388.652 2.809l.782 1.56c.22.437.4 1.005.4 1.263 0 .772 2.893 6.432 4.088 8 .612.801 1.117 1.611 1.123 1.8.021.688 7.443 8.017 8.789 8.678 1.293.636 2.52 1.408 2.754 1.733.839 1.163 9.467 4.728 12.446 5.143.99.137 2.16.415 2.6.616.448.204 11.89.411 26 .469l25.2.103 1.827 1.05c1.004.577 2.264 1.177 2.8 1.332.942.274 4.186 1.697 6.507 2.854.623.311 1.838.678 2.7.816.861.138 1.566.387 1.566.554 0 .167.806.424 1.791.572.985.147 1.883.417 1.995.6.113.182.882.458 1.71.612.827.155 1.684.425 1.904.6.22.175 1.3.528 2.4.786 1.1.257 3.08.742 4.4 1.078 5.66 1.439 12.49 2.708 18.8 3.49 2.2.273 4.27.617 4.6.764 3.196 1.422 45.621 1.427 48.8.005.33-.147 2.49-.491 4.8-.764 5.92-.698 12.687-1.946 19-3.503 5.11-1.26 6.02-1.511 6.613-1.822.337-.177 1.237-.456 2-.619.763-.164 1.567-.436 1.787-.606.22-.17 1.165-.435 2.1-.589.935-.154 1.7-.444 1.7-.645s.416-.365.924-.365c.507 0 1.272-.264 1.7-.587.427-.323 1.019-.593 1.316-.6.678-.016 2.446-.783 7.26-3.147l3.8-1.866 25.6-.109c14.08-.06 26.05-.271 26.6-.468.55-.197 1.801-.471 2.78-.608.979-.138 1.969-.397 2.2-.577.231-.18.928-.449 1.549-.598 1.011-.241 6.505-2.812 9.671-4.525 1.673-.904 11.4-10.698 11.4-11.477 0-.351.159-.638.353-.638.195 0 .467-.315.606-.7.138-.385.786-1.69 1.439-2.9.654-1.21 1.192-2.515 1.195-2.9.004-.385.143-.7.309-.7.442 0 1.302-2.105 1.58-3.87.133-.842.439-1.658.68-1.815.611-.398.604-16.382-.007-17.153-.245-.309-.564-1.335-.708-2.279-.144-.945-.424-2.025-.622-2.4a290.73 290.73 0 01-2.063-4.192c-.936-1.93-1.941-3.708-2.232-3.949-.292-.242-.53-.675-.53-.962 0-.619-8.304-9.38-8.891-9.38-.222 0-1.018-.54-1.77-1.2-.752-.66-1.553-1.2-1.78-1.2-.227 0-.985-.415-1.686-.922-.7-.508-2.263-1.341-3.473-1.853-2.221-.939-2.735-1.143-5.11-2.037-.901-.339-1.254-.696-1.129-1.141.099-.356.299-1.411.445-2.345.145-.934.408-1.787.583-1.895.176-.109.447-.875.601-1.703.155-.827.423-1.684.595-1.904.173-.22.437-1.251.588-2.291.15-1.04.443-1.995.65-2.123.207-.128.377-.662.377-1.186 0-.524.197-1.075.438-1.224.242-.149.362-.797.267-1.441-.094-.644-.022-1.263.162-1.376.183-.114.333-.725.333-1.359s.161-1.252.358-1.374c.197-.122.487-1.708.644-3.524.158-1.816.442-3.495.632-3.731.19-.236.468-2.717.618-5.514.149-2.797.424-5.18.61-5.295.444-.274.441-18.851-.003-19.126-.188-.116-.47-2.687-.627-5.714-.157-3.027-.433-5.688-.614-5.913-.181-.225-.457-1.715-.614-3.311-.157-1.595-.426-2.988-.598-3.094-.171-.106-.437-1.363-.59-2.794-.153-1.431-.445-2.704-.647-2.829-.203-.126-.369-.657-.369-1.181s-.156-1.049-.347-1.167c-.191-.118-.466-1.112-.612-2.208-.145-1.095-.418-2.087-.606-2.204-.189-.116-.464-1.019-.612-2.007-.148-.987-.423-1.89-.611-2.007-.188-.116-.464-.929-.612-1.807-.148-.878-.434-1.697-.635-1.822-.201-.124-.365-.502-.365-.841 0-.339-.289-1.273-.643-2.077-.354-.803-.878-2-1.165-2.66-.287-.66-1.078-2.392-1.757-3.849-.679-1.457-1.235-2.825-1.235-3.041 0-.456-1.855-4.034-2.546-4.91-.26-.33-1.089-1.86-1.842-3.4-.752-1.54-1.873-3.456-2.49-4.258-.617-.801-1.122-1.656-1.122-1.9 0-.243-.159-.442-.353-.442-.195 0-.469-.315-.61-.7-.475-1.295-1.478-2.9-1.812-2.9-.183 0-.446-.315-.585-.7-.302-.835-1.054-2.106-1.726-2.915a952.626 952.626 0 00-1.7-2.038c-.668-.799-1.222-1.609-1.231-1.8-.009-.191-.549-.789-1.2-1.328-.651-.54-1.183-1.203-1.183-1.473 0-.584-17.114-18.146-17.683-18.146-.215 0-1.499-1.01-2.854-2.245-2.14-1.951-3.614-3.082-6.201-4.755-1.175-.76-1.467-.977-2.862-2.119-.77-.63-1.67-1.275-2-1.433-.33-.157-1.32-.728-2.2-1.268-.88-.54-1.915-1.093-2.3-1.228-.385-.135-.7-.372-.7-.528 0-.155-.81-.687-1.8-1.181-.99-.495-1.8-1.066-1.8-1.271 0-.205-.201-.372-.447-.372s-3.351-1.415-6.9-3.145c-3.549-1.73-7.263-3.461-8.253-3.848-1.968-.769-2.33-.919-5.656-2.352-1.241-.535-2.861-1.102-3.6-1.26-.739-.158-1.524-.426-1.744-.595-.22-.169-1.21-.496-2.2-.727-3.676-.857-5.417-1.337-6.036-1.663-.349-.185-1.654-.464-2.9-.619-1.245-.156-2.264-.424-2.264-.596 0-.173-1.305-.442-2.9-.599-1.595-.157-3.087-.436-3.316-.62-.229-.184-2.119-.458-4.2-.609-2.081-.15-4.002-.446-4.268-.656-.502-.396-22.989-.743-28.697-.442m24.745 11.135c21.337 2.134 40.754 8.564 57.05 18.892a342.33 342.33 0 004.312 2.704c.373.22 1.937 1.298 3.476 2.395 2.652 1.891 4.097 3.025 10.198 8.007 2.585 2.111 10.22 9.749 13.621 13.627 8.421 9.602 18.086 25.38 21.79 35.571.4 1.1.851 2.18 1.003 2.4.152.22.818 2.02 1.481 4 3.06 9.149 5.295 18.711 6.125 26.2 2.283 20.608.462 38.337-5.915 57.6-.547 1.65-1.274 3.605-1.616 4.344l-.621 1.343-8.434-.18c-21.446-.458-37.698-9.825-50.848-29.307-8.141-12.062-14.293-18.336-23.698-24.169-35.359-21.931-79.767-10.323-100.885 26.369-8.209 14.262-18.692 22.213-34.403 26.093-3.133.774-25.628 1.746-27.469 1.188-.919-.279-4.833-11.962-6.112-18.244-1.51-7.416-2.069-10.793-2.603-15.72-6-55.349 26.27-110.177 77.984-132.497 1.1-.475 2.36-1.021 2.8-1.213 17.653-7.709 42.495-11.431 62.764-9.403m56.246 82.811c-17.382 4.876-16.002 29.916 1.82 33.02 17.189 2.993 27.058-18.83 13.507-29.869-3.954-3.222-10.371-4.541-15.327-3.151m-140.21.822c-5.167 1.222-6.423 1.796-9.111 4.165-11.959 10.544-4.711 29.358 11.311 29.358 19.636 0 23.593-26.786 4.861-32.908-1.563-.511-5.903-.889-7.061-.615m82.8 39.974c18.696 2.808 33.047 12.583 44.368 30.221C267.029 234.339 288.735 246 315.456 246c15.145 0 23.863 3.211 30.556 11.253 15.658 18.815 3.652 46.9-21.012 49.154-4.803.439-28.874.464-29.98.032-.686-.269-.359-.75 2.719-3.997 3.328-3.512 5.998-7.19 7.84-10.8 1.078-2.114 1.124-2.105 4.577.907 4.762 4.153 8.396 4.205 10.379.148 1.657-3.393.777-4.687-8.517-12.531-.76-.641-2.2-1.893-3.2-2.781-2.421-2.151-9.353-8.035-11.683-9.917-4.333-3.501-9.457-1.282-9.009 3.902.185 2.138.499 2.506 7.203 8.43l2.716 2.4-.69 2c-9.428 27.314-69.773 44.919-126.701 36.964-3.05-.427-6.29-.938-7.2-1.136a409.32 409.32 0 00-5.054-1.045c-3.558-.715-12.794-3.246-16.964-4.648-4.99-1.677-9.513-3.56-15.025-6.256-2.73-1.334-8.6-4.937-10.258-6.296-.928-.761-1.85-1.383-2.048-1.383-.834 0-8.688-8.375-10.127-10.8-3.105-5.228-4.308-9.839-2.838-10.877 1.119-.791 6.859-5.912 8.56-7.636 3.369-3.415 1.254-8.687-3.484-8.687-2.477 0-1.286-.914-21.596 16.574-6.629 5.708-7.629 7.678-5.559 10.945 2.177 3.435 5.536 3.178 10.053-.771 1.827-1.596 1.865-1.573 3.857 2.394 2.095 4.172 5.643 9.011 8.784 11.981 2.518 2.38 2.669 2.755 1.257 3.11-2.816.706-30.775-.124-33.976-1.009-27.282-7.547-30.942-43.973-5.636-56.081 6.067-2.903 7.984-3.203 22.6-3.541 9.253-.213 13.865-.48 16-.927 20.222-4.232 32.902-13.284 43.625-31.141 14.483-24.121 37.246-35.587 62.975-31.723m-40.295 21.993c-.89.501-9.219 10.32-13.992 16.496-2.335 3.023-2.291 5.838.125 7.871 2.966 2.495 5.521 1.675 9.427-3.027 8.581-10.327 11.721-14.461 11.962-15.749.722-3.848-4.164-7.479-7.522-5.591m58.254-.032c-2.673 1.163-3.881 5.097-2.285 7.439.694 1.018 5.829 7.445 11.016 13.789 4.083 4.993 8.162 5.964 10.413 2.479 1.866-2.887 1.316-4.499-3.669-10.765-11.001-13.824-11.839-14.525-15.475-12.942"/>
    <path fill="#f9b305" d="M194.8 181.984c-15.096 1.358-28.208 7.658-38.824 18.655-3.357 3.477-8.929 10.997-9.707 13.099-1.511 4.084-10.482 14.902-15.869 19.135-12.226 9.61-23.333 13.025-44 13.531-15.518.38-17.705.756-24 4.127-19.667 10.533-21.111 37.78-2.667 50.353 6.917 4.715 9.297 5.182 27.467 5.383 17.657.195 17.068.336 13.588-3.248-3.283-3.382-6.617-8.051-8.372-11.727-1.633-3.419-1.404-3.359-4.072-1.082-4.613 3.939-9.59 2.804-10.567-2.41-.523-2.791-.067-3.306 12.572-14.2 2.935-2.53 7.036-6.074 9.112-7.875 5.384-4.671 7.842-5.121 10.875-1.991 3.092 3.19 1.681 6.513-5.054 11.911-3.212 2.575-4.93 4.453-4.664 5.101.148.36.44 1.284.65 2.054 1.452 5.325 7.624 13.511 12.979 17.214l3.894 2.694c10.712 7.412 28.7 14.009 46.459 17.039 46.753 7.975 96.924-.769 121.411-21.16 7.821-6.513 12.971-15.306 10.289-17.569-8.44-7.123-8.809-7.555-8.771-10.274.054-3.928 4.183-6.598 7.771-5.026 1.05.46 8.4 6.576 16.683 13.882 2.12 1.87 4.789 4.185 5.931 5.145 3.747 3.149 4.517 5.554 2.772 8.655-2.066 3.672-6.039 3.52-10.507-.403-3.005-2.639-3.309-2.672-4.532-.494-1.463 2.603-4.281 6.761-5.488 8.097-.596.66-1.911 2.062-2.921 3.115-1.509 1.573-1.73 1.982-1.238 2.29 1.167.73 30.627.21 33.6-.594 27.295-7.375 31.388-42.706 6.419-55.404-5.385-2.739-10.372-3.591-21.069-3.6-25.838-.022-47.833-11.625-61.514-32.451-9.471-14.418-17.792-22.006-29.812-27.188-8.893-3.834-19.61-5.613-28.824-4.784m-21.504 22.077c1.605.634 2.704 2.663 2.704 4.991 0 2.413-.364 2.927-13.224 18.654-3.084 3.771-8.047 3.439-10.045-.672-1.309-2.695-.861-3.961 3.165-8.954 11.33-14.048 11.199-13.903 13.062-14.456 1.32-.391 2.558-.267 4.338.437m57.97-.013c1.122.443 14.119 16.002 15.341 18.365 1.762 3.408-1.108 7.984-5.007 7.984-2.69 0-3.565-.847-13.2-12.787-5.197-6.44-5.134-6.33-5.172-8.896-.061-4.07 3.828-6.327 8.038-4.666"/>
    <path fill="#fbfbfb" d="M194.6 58.684c-13.353.312-31.35 3.531-40.2 7.189a9.19 9.19 0 01-1 .348c-6.186 1.555-22.743 9.887-30.114 15.154-27.508 19.657-44.922 44.161-52.468 73.825-1.683 6.617-1.943 7.846-2.589 12.2-.359 2.42-.821 5.39-1.028 6.6-1.297 7.59-.654 27.751 1.168 36.6l1.11 5.4c.803 3.91 3.411 13.094 4.657 16.4l.98 2.6 9.142.128c11.671.164 19.366-.876 24.802-3.354.694-.316 1.356-.574 1.473-.574.808 0 6.327-2.934 9.59-5.099 6.618-4.391 12.144-10.414 15.703-17.113 19.971-37.601 67.763-49.926 103.374-26.66 9.273 6.059 15.731 12.869 23.27 24.539 4.952 7.665 10.282 13.053 17.93 18.126 3.696 2.451 11.808 6.607 12.898 6.607.298 0 .713.157.922.35 1.609 1.481 13.594 3.329 20.57 3.172l5.391-.122 1.162-3c.639-1.65 1.409-3.855 1.71-4.9.301-1.045.821-2.845 1.156-4 5.605-19.344 6.083-43.816 1.256-64.3-1.089-4.622-3.376-12.455-4.261-14.6-.182-.44-.778-1.97-1.326-3.4-9.035-23.604-27.048-45.603-49.678-60.67-6.863-4.569-16.331-9.442-23.2-11.94-1.1-.4-2.18-.852-2.4-1.004-.22-.152-.94-.421-1.6-.598-1.396-.375-1.413-.381-2.2-.702-11.089-4.517-30.644-7.565-46.2-7.202m81.138 82.313c17.885 5.426 16.479 30.859-1.872 33.862-18.766 3.071-28.963-19.977-13.771-31.128 4.145-3.043 10.794-4.205 15.643-2.734m-143.783 1.027c11.816 2.724 17.654 16.068 11.351 25.945-9.854 15.44-34.568 8.049-33.177-9.921.85-10.983 11.088-18.499 21.826-16.024"/>
    <path fill="#c41c1c" d="M96.4 18.758c0 .196-1.665.486-3.7.644-2.035.158-3.88.426-4.1.597-.22.171-1.345.438-2.5.594-1.155.155-2.1.42-2.1.589 0 .169-.931.417-2.07.552-1.138.135-2.173.408-2.3.606-.126.199-.995.49-1.93.646-.935.156-1.7.446-1.7.644s-.72.476-1.6.616c-.88.141-1.6.393-1.6.561 0 .167-.63.422-1.4.567-.77.144-1.4.434-1.4.644 0 .21-.211.382-.47.382-.672 0-8.047 3.717-8.73 4.4-.347.347-1.756 1.167-3 1.747-.66.307-1.597.94-2.083 1.406-.486.466-1.062.847-1.28.847-.219 0-.541.237-.717.527-.176.291-1.22 1.133-2.32 1.872-2.485 1.669-8.187 7.07-12.295 11.645-3.651 4.066-4.305 4.853-4.305 5.18 0 .297-1.046 1.643-2.5 3.218-.385.417-.7.925-.7 1.129 0 .205-.227.61-.505.9-.277.291-.726.979-.997 1.529-.609 1.237-1.417 2.534-1.744 2.8-.135.11-.373.605-.527 1.1-.155.495-.429.9-.609.9-.181 0-.447.63-.592 1.4-.144.77-.426 1.4-.626 1.4s-.482.63-.626 1.4c-.145.77-.409 1.4-.587 1.4s-.442.54-.587 1.2c-.145.66-.429 1.2-.632 1.2-.202 0-.369.315-.37.7-.002.385-.265 1.203-.586 1.817-.32.614-.699 1.739-.842 2.5-.142.761-.402 1.383-.577 1.383-.175 0-.442.9-.593 2-.151 1.099-.421 2.09-.6 2.2-.179.11-.449 1.1-.6 2.2-.151 1.1-.419 2.088-.596 2.197-.176.109-.449 1.685-.606 3.501-.158 1.816-.492 3.555-.742 3.863-.649.8-.656 204.741-.008 205.154.247.157.578 1.86.736 3.785.158 1.925.431 3.5.606 3.5s.441.987.592 2.194c.151 1.206.421 2.284.6 2.395.179.111.447 1.013.596 2.006.149.993.44 1.805.647 1.805.206 0 .376.405.377.9.002.495.265 1.403.586 2.017.32.614.699 1.739.842 2.5.142.761.405 1.383.583 1.383.178 0 .442.54.587 1.2.145.66.429 1.2.632 1.2.202 0 .368.271.368.601 0 .331.36 1.274.8 2.095.44.82.8 1.72.8 1.998s.177.506.392.506c.216 0 .506.45.644 1s.411 1 .607 1c.197 0 .357.257.357.571 0 .315.227.81.505 1.1.277.291.726.979.997 1.529.444.902.959 1.761 1.784 2.978.157.232.832 1.076 1.5 1.875.668.799 1.214 1.645 1.214 1.88 0 .235.241.571.535.747.295.176.7.616.9.977.772 1.392 8.474 9.543 9.017 9.543.144 0 1.242.945 2.442 2.1 3.244 3.124 4.172 3.9 4.662 3.9.244 0 .444.141.444.314 0 .172.533.629 1.185 1.014s1.417.927 1.7 1.204c.779.762 5.357 3.468 5.867 3.468.247 0 .448.167.448.372s1.395 1.027 3.1 1.828c5.226 2.454 5.893 2.79 6.112 3.081.117.155.972.403 1.9.551.928.149 1.688.419 1.688.601s.632.449 1.404.594c.773.145 1.494.408 1.603.584.108.175.915.441 1.793.589.878.148 1.687.417 1.798.597.112.181 1.148.455 2.302.61 1.155.156 2.293.438 2.53.628.236.191 1.766.468 3.4.616 1.633.149 3.098.468 3.255.71.443.68 212.788.62 213.015-.061.097-.291.863-.504 1.833-.51.917-.005 2.387-.2 3.267-.433a95.55 95.55 0 013.8-.891c1.21-.256 2.38-.58 2.6-.719.22-.139 1.03-.385 1.8-.546.77-.161 1.58-.432 1.8-.601.22-.169.985-.433 1.7-.586.715-.152 1.3-.423 1.3-.6 0-.178.81-.445 1.8-.593.99-.149 1.8-.425 1.8-.614s.54-.462 1.2-.607c.66-.145 1.2-.415 1.2-.6s.54-.455 1.2-.6c.66-.145 1.2-.429 1.2-.632 0-.202.294-.368.653-.368.703 0 3.461-1.561 3.68-2.083.074-.174.32-.317.548-.317.399 0 5.111-2.714 5.519-3.179.11-.126.874-.677 1.697-1.225.824-.548 1.499-1.131 1.5-1.296.002-.165.203-.3.447-.3.49 0 1.418-.776 4.662-3.9 1.2-1.155 2.298-2.1 2.442-2.1.385 0 1.968-1.557 4.512-4.439a356.877 356.877 0 013.2-3.586 27.49 27.49 0 001.74-2.145c.44-.615.981-1.324 1.202-1.574.221-.251 1.121-1.536 2-2.856.879-1.32 1.733-2.46 1.898-2.533.165-.074.3-.361.3-.639s.36-.921.8-1.428c.44-.507.8-1.165.8-1.461 0-.297.16-.539.357-.539.196 0 .469-.45.607-1s.428-1 .644-1c.215 0 .398-.225.406-.5.007-.275.361-1.22.786-2.1.425-.88.779-1.825.786-2.1.008-.275.194-.5.414-.5.22 0 .401-.225.402-.5.002-.275.255-.983.563-1.573.308-.59.681-1.625.829-2.3.148-.675.424-1.227.613-1.227s.465-.81.614-1.8c.148-.99.423-1.8.611-1.8.187 0 .46-.904.607-2.009.147-1.105.412-2.099.591-2.209.178-.11.447-1.051.597-2.091.151-1.04.42-2.076.599-2.302.178-.226.452-1.846.608-3.6.156-1.754.482-3.317.725-3.474.627-.406.63-204.622.002-205.03-.242-.157-.557-1.706-.7-3.444-.143-1.737-.421-3.357-.616-3.6-.196-.242-.482-1.386-.638-2.541-.155-1.155-.424-2.1-.598-2.1s-.441-.99-.592-2.2c-.151-1.21-.422-2.2-.601-2.2-.18 0-.444-.622-.586-1.383-.143-.761-.522-1.886-.842-2.5-.321-.614-.584-1.432-.586-1.817-.001-.385-.168-.7-.37-.7-.203 0-.487-.54-.632-1.2-.145-.66-.429-1.2-.632-1.2-.202 0-.368-.31-.368-.689 0-.774-2.823-6.637-3.296-6.844-.167-.074-.304-.394-.304-.713 0-.318-.27-.683-.6-.809-.33-.127-.6-.443-.6-.703 0-.652-4.009-6.642-4.446-6.642-.195 0-.354-.178-.354-.397 0-.538-2.282-3.489-4.652-6.016-1.857-1.978-2.58-2.702-7.795-7.793-1.236-1.207-2.451-2.194-2.7-2.194-.249 0-.453-.141-.453-.314 0-.172-.495-.61-1.1-.973-1.094-.656-1.992-1.327-3.98-2.978-.573-.476-1.509-1.106-2.081-1.4-.571-.294-1.277-.76-1.568-1.035-.29-.275-.785-.5-1.1-.5-.314 0-.571-.137-.571-.305 0-.335-.387-.564-3.709-2.195-1.232-.605-2.431-1.1-2.665-1.1-.234 0-.426-.166-.426-.368 0-.203-.54-.487-1.2-.632-.66-.145-1.2-.421-1.2-.614 0-.192-.63-.468-1.4-.612-.77-.145-1.4-.4-1.4-.567 0-.168-.72-.42-1.6-.561-.88-.14-1.6-.422-1.6-.626 0-.204-.81-.492-1.8-.641-.99-.148-1.8-.416-1.8-.596 0-.179-.99-.449-2.2-.6-1.21-.151-2.2-.414-2.2-.583 0-.169-.987-.431-2.194-.582-1.206-.151-2.283-.42-2.394-.598-.11-.178-1.912-.452-4.005-.609-2.093-.157-3.907-.449-4.03-.648-.297-.481-205.777-.487-205.777-.005m117.316 29.153c.266.21 2.187.506 4.268.656 2.081.151 3.971.425 4.2.609.229.184 1.721.463 3.316.62 1.595.157 2.9.426 2.9.599 0 .172 1.019.44 2.264.596 1.246.155 2.551.434 2.9.619.619.326 2.36.806 6.036 1.663.99.231 1.98.558 2.2.727.22.169 1.005.437 1.744.595.739.158 2.359.725 3.6 1.26 3.326 1.433 3.688 1.583 5.656 2.352.99.387 4.704 2.118 8.253 3.848 3.549 1.73 6.654 3.145 6.9 3.145.246 0 .447.167.447.372s.81.776 1.8 1.271c.99.494 1.8 1.026 1.8 1.181 0 .156.315.393.7.528.385.135 1.42.688 2.3 1.228.88.54 1.87 1.111 2.2 1.268.33.158 1.23.803 2 1.433 1.395 1.142 1.687 1.359 2.862 2.119 2.587 1.673 4.061 2.804 6.201 4.755 1.355 1.235 2.639 2.245 2.854 2.245.569 0 17.683 17.562 17.683 18.146 0 .27.532.933 1.183 1.473.651.539 1.191 1.137 1.2 1.328.009.191.563 1.001 1.231 1.8.668.799 1.433 1.716 1.7 2.038.672.809 1.424 2.08 1.726 2.915.139.385.402.7.585.7.334 0 1.337 1.605 1.812 2.9.141.385.415.7.61.7.194 0 .353.199.353.442 0 .244.505 1.099 1.122 1.9.617.802 1.738 2.718 2.49 4.258.753 1.54 1.582 3.07 1.842 3.4.691.876 2.546 4.454 2.546 4.91 0 .216.556 1.584 1.235 3.041.679 1.457 1.47 3.189 1.757 3.849.287.66.811 1.857 1.165 2.66.354.804.643 1.738.643 2.077 0 .339.164.717.365.841.201.125.487.944.635 1.822.148.878.424 1.691.612 1.807.188.117.463 1.02.611 2.007.148.988.423 1.891.612 2.007.188.117.461 1.109.606 2.204.146 1.096.421 2.09.612 2.208.191.118.347.643.347 1.167s.166 1.055.369 1.181c.202.125.494 1.398.647 2.829.153 1.431.419 2.688.59 2.794.172.106.441 1.499.598 3.094.157 1.596.433 3.086.614 3.311.181.225.457 2.886.614 5.913.157 3.027.439 5.598.627 5.714.444.275.447 18.852.003 19.126-.186.115-.461 2.498-.61 5.295-.15 2.797-.428 5.278-.618 5.514-.19.236-.474 1.915-.632 3.731-.157 1.816-.447 3.402-.644 3.524-.197.122-.358.74-.358 1.374 0 .634-.15 1.245-.333 1.359-.184.113-.256.732-.162 1.376.095.644-.025 1.292-.267 1.441-.241.149-.438.7-.438 1.224s-.17 1.058-.377 1.186c-.207.128-.5 1.083-.65 2.123-.151 1.04-.415 2.071-.588 2.291-.172.22-.44 1.077-.595 1.904-.154.828-.425 1.594-.601 1.703-.175.108-.438.961-.583 1.895-.146.934-.346 1.989-.445 2.345-.125.445.228.802 1.129 1.141 2.375.894 2.889 1.098 5.11 2.037 1.21.512 2.773 1.345 3.473 1.853.701.507 1.459.922 1.686.922.227 0 1.028.54 1.78 1.2.752.66 1.548 1.2 1.77 1.2.587 0 8.891 8.761 8.891 9.38 0 .287.238.72.53.962.291.241 1.296 2.019 2.232 3.949a290.73 290.73 0 002.063 4.192c.198.375.478 1.455.622 2.4.144.944.463 1.97.708 2.279.611.771.618 16.755.007 17.153-.241.157-.547.973-.68 1.815-.278 1.765-1.138 3.87-1.58 3.87-.166 0-.305.315-.309.7-.003.385-.541 1.69-1.195 2.9-.653 1.21-1.301 2.515-1.439 2.9-.139.385-.411.7-.606.7-.194 0-.353.287-.353.638 0 .779-9.727 10.573-11.4 11.477-3.166 1.713-8.66 4.284-9.671 4.525-.621.149-1.318.417-1.548.597-.545.424-4.346 1.132-8.381 1.56-1.76.187-13.546.354-26.192.371l-22.992.032-3.608 1.766c-4.648 2.276-6.4 3.031-7.068 3.047-.297.007-.889.277-1.316.6-.428.323-1.193.587-1.7.587-.508 0-.924.164-.924.365 0 .201-.765.491-1.7.645-.935.154-1.88.419-2.1.589-.22.17-1.024.442-1.787.606-.763.163-1.663.442-2 .619-2.27 1.191-17.614 4.382-25.613 5.325-2.31.273-4.47.617-4.8.764-3.179 1.422-45.604 1.417-48.8-.005-.33-.147-2.4-.491-4.6-.764-6.31-.782-13.14-2.051-18.8-3.49-1.32-.336-3.3-.821-4.4-1.078-1.1-.258-2.18-.611-2.4-.786-.22-.175-1.077-.445-1.904-.6-.828-.154-1.597-.43-1.71-.612-.112-.183-1.01-.453-1.995-.6-.985-.148-1.791-.405-1.791-.572 0-.167-.705-.416-1.566-.554-.862-.138-2.077-.505-2.7-.816-2.821-1.407-5.577-2.636-5.908-2.636-.2 0-1.457-.528-2.794-1.173l-2.432-1.173-25.239-.127c-17.738-.089-25.405-.259-25.8-.572-.308-.244-1.434-.558-2.502-.698-3.082-.402-11.828-3.974-12.705-5.188-.234-.325-1.461-1.097-2.754-1.733-1.346-.661-8.768-7.99-8.789-8.678-.006-.189-.511-.999-1.123-1.8-1.195-1.568-4.088-7.228-4.088-8 0-.258-.18-.826-.4-1.263l-.782-1.56c-.209-.421-.503-1.685-.652-2.809-.149-1.124-.428-2.141-.619-2.259-.453-.28-.453-12.054 0-12.334.191-.119.473-1.32.625-2.67.153-1.349.427-2.748.609-3.108.182-.36.665-1.375 1.075-2.255.409-.88.879-1.66 1.044-1.733.165-.074.3-.544.3-1.046s.36-1.371.8-1.93c.44-.56.8-1.214.8-1.454s.18-.437.4-.437c.22 0 .4-.242.4-.538 0-.296.36-.864.8-1.262.44-.398.802-.921.804-1.162.002-.241.72-1.068 1.596-1.838.876-.77 1.594-1.621 1.596-1.891.002-.27.499-.803 1.104-1.185.605-.382 2.053-1.55 3.218-2.596 2.309-2.073 2.549-2.221 7.982-4.915 3.662-1.816 4.892-3.429 3.345-4.385-.195-.121-.477-.873-.627-1.673-.15-.799-.44-1.791-.645-2.204l-.765-1.534c-.216-.43-.511-1.555-.655-2.5-.144-.944-.406-1.901-.582-2.127-.176-.225-.445-1.355-.598-2.509-.153-1.154-.422-2.188-.598-2.296-.175-.109-.444-1.23-.596-2.491-.153-1.262-.42-2.474-.594-2.694-.174-.22-.445-1.75-.602-3.4-.157-1.65-.432-3.185-.61-3.412-.178-.226-.452-2.707-.608-5.513-.156-2.805-.437-5.196-.624-5.312-.446-.275-.445-18.851 0-19.127.188-.116.47-2.687.627-5.714.157-3.027.435-5.688.619-5.913.183-.225.462-1.804.62-3.509.158-1.705.42-3.1.583-3.1.163 0 .412-1.107.553-2.459.141-1.353.414-2.658.607-2.9.192-.243.479-1.341.637-2.441.158-1.1.43-2.18.604-2.4.174-.22.45-1.024.614-1.787.163-.763.454-1.708.646-2.1l.698-1.426c.192-.392.483-1.337.646-2.1.164-.763.436-1.567.605-1.787.169-.22.439-1.03.6-1.8.161-.77.43-1.58.597-1.8.168-.22.432-.85.587-1.4.294-1.047 1.841-4.548 2.915-6.6.345-.66 1.515-2.91 2.599-5 3.165-6.104 4.094-7.784 5.025-9.092.482-.677.877-1.358.877-1.512 0-.155.54-.963 1.2-1.796.66-.833 1.2-1.643 1.2-1.8 0-.157.54-.967 1.2-1.8.66-.833 1.2-1.641 1.2-1.794 0-.153.81-1.227 1.8-2.385.99-1.159 1.8-2.235 1.8-2.391 0-.156.63-.878 1.4-1.604.77-.726 1.4-1.486 1.4-1.688 0-.203.9-1.255 2-2.338 1.1-1.083 2-2.093 2-2.244 0-.342 9.77-9.959 11.4-11.221a57.02 57.02 0 002.4-1.994l3.045-2.703c1.014-.901 2.027-1.638 2.251-1.638.223 0 .653-.3.955-.666.302-.367 1.449-1.261 2.549-1.987 1.1-.727 3.053-2.047 4.34-2.934 1.288-.887 2.425-1.613 2.527-1.613.103 0 .759-.405 1.46-.901 1.77-1.253 2.561-1.713 4.973-2.894 1.155-.566 2.1-1.189 2.1-1.385 0-.196.54-.475 1.2-.62.66-.145 1.2-.429 1.2-.632 0-.202.205-.368.456-.368.25 0 2.185-.83 4.3-1.844 6.06-2.906 7.093-3.356 7.708-3.356.317 0 .747-.167.956-.37.534-.521 14.66-5.23 15.688-5.23.465 0 .943-.159 1.063-.353.12-.195 1.208-.477 2.417-.628 1.21-.151 2.292-.424 2.404-.606.113-.182 1.511-.46 3.106-.617 1.596-.157 3.082-.425 3.302-.596.22-.171 2.11-.441 4.2-.6 2.09-.159 3.989-.44 4.219-.626.956-.77 31.328-.829 32.297-.063M195.6 181.6l-2.6.262 2.2.029c1.21.017 3.19-.107 4.4-.274 2.948-.408.001-.42-4-.017m7.705.287c.609.092 1.509.09 2-.005.492-.095-.005-.171-1.105-.168-1.1.003-1.503.081-.895.173m-16.505.913c-.795.514.204.514 1.4 0l.8-.344-.8-.022c-.44-.012-1.07.153-1.4.366m50 11.591c7.307 6.67 12.109 12.241 15.696 18.209.794 1.32 2.094 3.12 2.89 4l1.448 1.6-1.517-2.181a175.26 175.26 0 01-3.425-5.2c-3.895-6.16-9.714-12.641-14.694-16.363l-1.798-1.343 1.4 1.278m-76.638 1.638c-4.34 3.728-11.726 12.141-11.157 12.709.14.14.417-.035.616-.39 1.202-2.147 4.577-6.033 8.603-9.903 2.543-2.445 4.551-4.445 4.462-4.445-.089 0-1.225.913-2.524 2.029m70.68 8.169c.573.312 2.337 2.105 3.92 3.984 1.583 1.88 2.969 3.418 3.081 3.418.669 0-5.353-7.031-6.451-7.531-1.428-.651-1.817-.559-.55.129m-63.842.516c-.962.727-3.126 3.293-2.937 3.482.114.115.968-.693 1.896-1.794 1.642-1.946 1.867-2.311 1.041-1.688m57.723.386c-.705.821-1.233 1.7-1.022 1.7.082 0 .548-.54 1.036-1.2.964-1.304.955-1.628-.014-.5m-61.523 4.217c-.643.526-1.889 2.022-7.313 8.778-4.529 5.641-4.927 8.485-1.559 11.134 1.613 1.269 1.975.87.393-.434-1.844-1.52-2.554-3.477-1.939-5.342.5-1.514.897-2.054 6.911-9.405 2.362-2.887 4.252-5.242 4.2-5.235-.051.007-.363.233-.693.504m-18.028 5.383c-1.807 3.025-3.8 6.126-4.428 6.891-.629.765-1.144 1.544-1.144 1.731 0 .843 4.445-5.552 6.534-9.4a98.418 98.418 0 011.84-3.222c.498-.825.81-1.5.694-1.5-.116 0-1.689 2.475-3.496 5.5m79.192-2.367c.216.403.707.988 1.091 1.3.432.351.335.071-.254-.733-1.05-1.435-1.444-1.702-.837-.567m15.59 2.167c6.04 7.441 6.579 8.272 6.579 10.133 0 2.377-.81 3.747-2.733 4.622-.896.407-1.275.731-.862.736 2.968.036 5.165-4.658 3.61-7.711-.644-1.262-8.031-10.28-8.422-10.28-.111 0 .712 1.125 1.828 2.5m-69.2 2.6c-1.377 1.705-2.198 2.851-1.823 2.546.774-.629 4.777-5.646 4.505-5.646-.098 0-1.305 1.395-2.682 3.1m55.945-1.8c10.691 13.459 11.844 14.719 13.432 14.677.633-.016.495-.152-.512-.5-1.376-.475-2.774-2.025-10.085-11.177-1.537-1.925-2.894-3.5-3.014-3.5-.12 0-.039.225.179.5m30.846 4.1c1.303 1.836 4.848 5.652 4.831 5.2-.008-.22-1.29-1.75-2.849-3.4-1.558-1.65-2.451-2.46-1.982-1.8m-92.926 5.234c-1.964 2.384-4.041 4.49-4.754 4.82l-1.265.586 1.2-.248c1.272-.262 3.8-2.416 3.8-3.237 0-.269.135-.548.3-.622.328-.145 3.776-4.227 4.252-5.033.784-1.328-.353-.126-3.533 3.734m98.181.69c0 .068 1.035.988 2.3 2.046l2.3 1.922-2.106-2.046c-1.892-1.838-2.494-2.302-2.494-1.922M134 229.116l-2.6 2.609 2.443-2.052c2.587-2.174 3.681-3.308 3.106-3.219-.192.03-1.519 1.228-2.949 2.662m-5.031 4.21c-.898.707-2.068 1.606-2.6 1.997-.945.694-.938.695.276.041 1.201-.648 4.562-3.34 4.155-3.328-.11.003-.934.583-1.831 1.29m145.608 1.437c.151.243.847.72 1.548 1.059 1.184.572 1.218.57.475-.032-1.215-.985-2.355-1.564-2.023-1.027m3.023 1.821c0 .11.72.567 1.6 1.016.88.449 1.6.726 1.6.616 0-.11-.72-.567-1.6-1.016-.88-.449-1.6-.726-1.6-.616m-155.8 1.433c-1.1.647-1.858 1.178-1.684 1.18.525.005 3.412-1.556 3.68-1.991.342-.554.281-.528-1.996.811m-4 2.005c-.88.416-1.366.762-1.08.768.582.011 2.88-1.106 2.88-1.4 0-.234.118-.276-1.8.632m168.551.972c1.184.553 2.354 1.002 2.6.997.549-.011-2.468-1.404-3.794-1.752-.526-.139.011.201 1.194.755m8.849 2.988c.33.223.945.409 1.367.412 1.023.008.704-.221-.767-.55-.876-.196-1.038-.159-.6.138M101 245.2c-1.107.282-1.123.309-.2.347.55.022 1.27-.134 1.6-.347.681-.44.329-.44-1.4 0m199.8.005c.33.211 1.125.386 1.767.389 1.547.008 1.21-.223-.767-.526-1.09-.167-1.409-.123-1 .137M96.2 246c-1.019.438.032.438 1.4 0 .804-.257.843-.323.2-.332-.44-.006-1.16.143-1.6.332m-22.6.355c-1.364.244 16.811.136 18.8-.111.55-.068-3.14-.127-8.2-.131-5.06-.004-9.83.105-10.6.242m239.9-.057c2.035.073 5.365.073 7.4 0s.37-.132-3.7-.132-5.735.059-3.7.132m15.733 1.046c.092.079.707.264 1.367.412.876.196 1.038.159.6-.138-.54-.365-2.368-.62-1.967-.274M65.4 248.614c-1.005.484-1.037.539-.2.337.55-.132 1.171-.401 1.38-.596.518-.484.234-.422-1.18.259m267-.383c0 .27 2.078 1.025 2.276.826.091-.09-.384-.356-1.056-.59-.671-.234-1.22-.34-1.22-.236m-269.601 1.618l-.999.584 1-.266c1.114-.297 1.414-.486 1.166-.734-.092-.092-.617.095-1.167.416m-2.41 1.217c-2.339 1.575-6.334 5.019-6.554 5.649-.148.425.112.293.686-.348 1.267-1.415 6.083-5.167 6.633-5.167.245 0 .446-.18.446-.4 0-.526-.052-.514-1.211.266m279.211.824c0 .213.373.554.83.758.456.204 2.284 1.806 4.061 3.561 2.367 2.338 2.826 2.681 1.714 1.281-1.308-1.646-3.051-3.254-5.905-5.45-.385-.296-.7-.363-.7-.15M50.677 260.7c-1.434 2.304-1.538 2.5-1.335 2.5.104 0 .743-.9 1.42-2 .677-1.1 1.145-2 1.039-2-.105 0-.611.675-1.124 1.5M348 260.162c0 .413 2.031 3.838 2.276 3.838.11 0-.293-.855-.897-1.9-1.249-2.164-1.379-2.347-1.379-1.938m-242.6 1.865c-1.101.255-1.06.282.5.326 1.696.047 2.147-.117 1.2-.435-.275-.093-1.04-.043-1.7.109m-4.1 2.273c-1.984 1.928-1.531 1.696 1.214-.622.833-.703 1.34-1.278 1.128-1.278-.212 0-1.266.855-2.342 1.9m8.487-.487c2.553 2.553 2.159 5.149-1.287 8.473-1.485 1.432-2.336 2.419-1.891 2.193.446-.226 1.751-1.405 2.9-2.621 2.099-2.218 2.285-2.72 2.1-5.658-.071-1.13-2.109-3.8-2.901-3.8-.184 0 .301.636 1.079 1.413m184.413 1.979c1.1.295 2.054.484 2.12.419.221-.217-2.427-1.011-3.28-.984-.462.015.06.269 1.16.565m-4.118.346c-3.482 1.932-3.363 6.724.239 9.658l1.879 1.531-1.956-2.034c-3.185-3.312-2.875-7.561.664-9.1.711-.309 1.022-.562.692-.563-.33-.001-1.013.228-1.518.508M97.375 267.7L96.2 269l1.3-1.175c1.212-1.095 1.484-1.425 1.175-1.425-.069 0-.654.585-1.3 1.3m200.878.616c4.344 3.756 8.497 7.149 7.145 5.838-2.892-2.806-7.711-6.954-8.058-6.938-.187.009.224.504.913 1.1M93.775 270.9l-1.175 1.3 1.3-1.175c1.212-1.095 1.484-1.425 1.175-1.425-.069 0-.654.585-1.3 1.3m259.149 5.3c.002 1.32.077 1.812.166 1.093.089-.719.087-1.799-.004-2.4s-.164-.013-.162 1.307m-266.124.659l-2.6 2.432 2.502-2.087c2.207-1.841 3.21-2.832 2.822-2.791-.068.008-1.294 1.108-2.724 2.446m16.575.041l-1.175 1.3 1.3-1.175c1.212-1.095 1.484-1.425 1.175-1.425-.069 0-.654.585-1.3 1.3m205.825.9c.517.55 1.002 1 1.079 1 .077 0-.155-.45-.516-1-.36-.55-.846-1-1.079-1-.233 0-.001.45.516 1m-16.8-.475c0 .069.585.654 1.3 1.3l1.3 1.175-1.175-1.3c-1.095-1.212-1.425-1.484-1.425-1.175m2.8 2.442c0 .421 1.205 1.561 1.421 1.345.101-.101-.177-.51-.619-.91-.441-.399-.802-.595-.802-.435M46.673 281.6c.131.99.303 1.875.383 1.967.301.347.072-2.203-.266-2.967-.237-.534-.276-.202-.117 1m53.739-.4c0 .33.175.87.388 1.2.345.533.388.533.388 0 0-.33-.175-.87-.388-1.2-.345-.533-.388-.533-.388 0m-21.303 2.3c-.338.385-.748 1.15-.911 1.7-.359 1.209-.204 1.056.916-.9.941-1.643.939-1.875-.005-.8m217.195 2.288c-.103.543-.056.906.106.806.43-.266.77-1.794.399-1.794-.174 0-.401.445-.505.988m23.305.863c-.005.248.25.666.567.929.317.263.652.87.746 1.349.152.782.174.79.215.071.025-.44-.307-1.25-.737-1.8s-.786-.797-.791-.549M103.424 288.7c1.548 2.673 1.697 2.87 4.358 5.735 1.311 1.411 2.126 2.205 1.812 1.765-.313-.44-1.303-1.61-2.199-2.6-.897-.99-2.323-2.925-3.169-4.3-1.799-2.921-2.411-3.38-.802-.6m-25.388-.574c-.065 1.305 1.819 3.817 2.895 3.861.182.007-.222-.452-.897-1.02-.676-.568-1.393-1.603-1.595-2.3-.202-.697-.383-.94-.403-.541m-29.235.394c-.002.553 1.249 2.764 1.45 2.562.106-.105-.177-.797-.628-1.537-.451-.74-.821-1.201-.822-1.025m40.191.688c-.402.445-1.541 1.345-2.53 2-.99.656-1.615 1.192-1.391 1.192.53 0 3.309-2.035 4.291-3.141.419-.473.672-.859.562-.859-.11 0-.529.364-.932.808m204.061 2.092c-1.567 2.191-3.82 4.457-9.053 9.104-1.35 1.199-1.328 1.193.6-.147 2.426-1.687 7.575-6.951 9.346-9.557 1.898-2.79 1.192-2.317-.893.6m-201.441-1.99c-.03.786 2.949 6.051 4.863 8.595 2.326 3.092 7.525 8.693 7.525 8.107 0-.202-.993-1.306-2.208-2.454-3.032-2.869-6.366-7.317-8.435-11.257-.953-1.816-1.739-3.162-1.745-2.991m212.188 5.385c-1.169 1.986-3.469 4.957-5.535 7.147-1.944 2.062-3.443 3.976-3.331 4.253.123.307.215.231.234-.195.018-.385.203-.7.412-.7 1.252 0 11.118-13.093 10.373-13.765-.084-.076-1.053 1.391-2.153 3.26m43.408-1.194c-.729 1.044-2.604 3.144-4.167 4.666-1.563 1.521-2.301 2.391-1.641 1.931 2.173-1.512 7.764-7.867 7.316-8.316-.1-.099-.778.674-1.508 1.719m-29.808 1.913c-.66.303-.919.558-.576.568.342.01.972-.246 1.4-.569.948-.717.745-.717-.824.001m-264.2.208c0 .465 5.293 5.218 5.538 4.973.118-.117-.225-.511-.762-.876-.537-.364-1.831-1.504-2.876-2.533-1.045-1.03-1.9-1.733-1.9-1.564m58.775 2.87c.976 1.04 1.861 1.805 1.967 1.7.105-.106.114-.237.019-.292-.096-.055-.981-.82-1.967-1.7l-1.794-1.599 1.775 1.891m224.686 4.154c-1.067.555-1.859 1.089-1.761 1.187.187.188 3.9-1.781 3.9-2.067 0-.234.01-.238-2.139.88m-218.913.278c1.028.88 4.745 3.132 4.252 2.576-.246-.278-4.36-3.049-4.963-3.344-.24-.118.08.228.711.768M65.4 304.393c.88.432 1.87.784 2.2.781.673-.006-1.326-.94-2.826-1.32-.536-.136-.254.107.626.539m4.443 1.206c.244.246 1.504.519 2.8.607l2.357.16-2.097-.339c-1.153-.186-2.413-.459-2.8-.607-.516-.196-.585-.149-.26.179m257.157.42c-.558.252-.315.288.8.119.88-.134 1.675-.31 1.767-.391.343-.303-1.799-.076-2.567.272m-244.726.68c3.781.066 10.081.066 14 0 3.919-.065.826-.119-6.874-.119-7.7 0-10.907.054-7.126.119m41.937.235c.916.619 2.189 1.121 2.189.864 0-.221-2.248-1.398-2.669-1.398-.17 0 .046.24.48.534m177.863-.235c3.671.066 9.791.066 13.6 0 3.809-.065.806-.119-6.674-.119-7.48-.001-10.597.053-6.926.119m-164.428 6.257c.135.148.843.44 1.573.649.766.22 1.169.227.954.016-.43-.42-2.898-1.07-2.527-.665m11.754 3.783c1.237.529 3.31.938 2.6.512-.33-.197-1.23-.471-2-.607-.944-.167-1.14-.136-.6.095m4.4 1.261c1.196.514 2.195.514 1.4 0-.33-.213-.96-.378-1.4-.366l-.8.022.8.344m4.633.944c.472.406 2.41.649 2.177.272-.142-.229-.727-.416-1.3-.416-.574 0-.968.065-.877.144m6 1.199c.092.078.797.258 1.567.399.985.181 1.222.14.8-.136-.542-.356-2.763-.603-2.367-.263m7.6 1.204c.092.081 1.046.241 2.121.357 1.195.128 1.739.074 1.4-.141-.519-.328-3.883-.535-3.521-.216m50.767.266c-.646.216-.22.253 1.2.106 1.21-.125 2.275-.293 2.367-.373.32-.281-2.576-.063-3.567.267m-39 .987c.22.076 2.2.212 4.4.303s3.55.033 3-.129c-.962-.283-8.217-.454-7.4-.174m16.6.2l-8.2.225 7.6.041c4.18.022 9.4-.089 11.6-.247l4-.287-3.4.021c-1.87.012-7.09.123-11.6.247"/>
    <path fill="#a08d8d" d="M185 58.643c-13.604 1.406-27.771 4.897-38 9.364-.44.192-1.7.738-2.8 1.213-51.714 22.32-83.984 77.148-77.984 132.497.534 4.927 1.093 8.304 2.603 15.72 1.279 6.282 5.193 17.965 6.112 18.244 1.841.558 24.336-.414 27.469-1.188 15.711-3.88 26.194-11.831 34.403-26.093 21.118-36.692 65.526-48.3 100.885-26.369 9.405 5.833 15.557 12.107 23.698 24.169 13.15 19.482 29.402 28.849 50.848 29.307l8.434.18.621-1.343c.342-.739 1.069-2.694 1.616-4.344 6.377-19.263 8.198-36.992 5.915-57.6-.83-7.489-3.065-17.051-6.125-26.2-.663-1.98-1.329-3.78-1.481-4-.152-.22-.603-1.3-1.003-2.4-3.265-8.984-11.367-22.68-19.354-32.717-3.188-4.006-12.559-13.624-16.057-16.481-6.101-4.982-7.546-6.116-10.198-8.007-1.539-1.097-3.103-2.175-3.476-2.395a342.33 342.33 0 01-4.312-2.704C243.77 62.892 212.845 55.765 185 58.643m30.2 1.139c8.977 1.169 19.851 3.762 25.6 6.104.787.321.804.327 2.2.702.66.177 1.38.446 1.6.598.22.152 1.3.604 2.4 1.004 6.869 2.498 16.337 7.371 23.2 11.94 22.63 15.067 40.643 37.066 49.678 60.67.548 1.43 1.144 2.96 1.326 3.4.885 2.145 3.172 9.978 4.261 14.6 4.827 20.484 4.349 44.956-1.256 64.3a2720.67 2720.67 0 00-1.156 4c-.301 1.045-1.071 3.25-1.71 4.9l-1.162 3-5.391.122c-6.976.157-18.961-1.691-20.57-3.172-.209-.193-.624-.35-.922-.35-1.09 0-9.202-4.156-12.898-6.607-7.648-5.073-12.978-10.461-17.93-18.126-7.539-11.67-13.997-18.48-23.27-24.539-35.611-23.266-83.403-10.941-103.374 26.66-3.559 6.699-9.085 12.722-15.703 17.113-3.263 2.165-8.782 5.099-9.59 5.099-.117 0-.779.258-1.473.574-5.436 2.478-13.131 3.518-24.802 3.354L75.116 235l-.98-2.6c-1.246-3.306-3.854-12.49-4.657-16.4l-1.11-5.4c-1.822-8.849-2.465-29.01-1.168-36.6.207-1.21.669-4.18 1.028-6.6.646-4.354.906-5.583 2.589-12.2 7.546-29.664 24.96-54.168 52.468-73.825 7.371-5.267 23.928-13.599 30.114-15.154a9.19 9.19 0 001-.348c14.676-6.067 40.856-8.69 60.8-6.091m49.589 81.529c-15.021 5.121-16.274 25.216-1.999 32.057 11.901 5.704 25.838-2.83 25.752-15.768-.078-11.863-12.251-20.211-23.753-16.289m12.148.69c16.03 6.066 13.417 29.713-3.585 32.442-16.059 2.577-26.245-16.616-15.046-28.349 4.738-4.964 12.072-6.575 18.631-4.093m-153.537.163c-13.002 3.227-17.69 18.814-8.637 28.719 7.75 8.48 22.214 7.003 28.543-2.914 8.337-13.063-4.451-29.64-19.906-25.805m9.461.688c18.732 6.122 14.775 32.908-4.861 32.908-16.022 0-23.27-18.814-11.311-29.358 2.688-2.369 3.944-2.943 9.111-4.165 1.158-.274 5.498.104 7.061.615m23.499 87.268c.186.186.946.276 1.689.199 1.318-.136 1.309-.144-.339-.339-.929-.109-1.537-.047-1.35.14m84.34.162a5.661 5.661 0 001.8 0c.495-.095.09-.173-.9-.173s-1.395.078-.9.173m-147 15.994c.385.1 1.015.1 1.4 0 .385-.101.07-.183-.7-.183s-1.085.082-.7.183m213.2.011a8.899 8.899 0 002.2 0c.605-.092.11-.167-1.1-.167-1.21 0-1.705.075-1.1.167M46.544 276.4c0 2.09.068 2.945.15 1.9a29.38 29.38 0 000-3.8c-.082-1.045-.15-.19-.15 1.9m260.744-.587c.598.63 1.159 1.064 1.247.966.088-.099-.402-.614-1.088-1.145l-1.247-.965 1.088 1.144m2.912 2.553c.778.895 3 2.632 3 2.346 0-.078-.855-.845-1.9-1.704s-1.54-1.148-1.1-.642m6.371 5.531c.644.712 1.259 1.207 1.367 1.099.107-.108.12-.241.029-.296-.092-.055-.707-.549-1.367-1.099l-1.2-.998 1.171 1.294m4.738 6.503c0 .99.078 1.395.173.9a5.661 5.661 0 000-1.8c-.095-.495-.173-.09-.173.9m-15.171.217c-.13.34-.125.73.013.867.137.137.249.039.249-.217 0-.257.27-.467.6-.467.33 0 .6-.18.6-.4 0-.64-1.202-.461-1.462.217M55 297.2c.859.88 1.652 1.6 1.762 1.6.11 0-.503-.72-1.362-1.6-.859-.88-1.652-1.6-1.762-1.6-.11 0 .503.72 1.362 1.6m268.3 9.087a8.899 8.899 0 002.2 0c.605-.092.11-.167-1.1-.167-1.21 0-1.705.075-1.1.167m-61.5 5.927c-1.005.484-1.037.539-.2.337.55-.132 1.171-.401 1.38-.596.518-.484.234-.422-1.18.259M87.328 317.1c6.121.062 16.021.062 22 0 5.98-.063.972-.113-11.128-.113s-16.992.051-10.872.113m203.2 0c6.121.062 16.021.062 22 0 5.98-.063.972-.113-11.128-.113s-16.992.051-10.872.113M163.3 319.876c.385.1 1.015.1 1.4 0 .385-.101.07-.183-.7-.183s-1.085.082-.7.183m3.5.506c.33.223.945.409 1.367.412 1.023.008.704-.221-.767-.55-.876-.196-1.038-.159-.6.138m59.7.694c.385.1 1.015.1 1.4 0 .385-.101.07-.183-.7-.183s-1.085.082-.7.183m-49.595.811c.609.092 1.509.09 2-.005.492-.095-.005-.171-1.105-.168-1.1.003-1.503.081-.895.173m42.595-.005a5.661 5.661 0 001.8 0c.495-.095.09-.173-.9-.173s-1.395.078-.9.173m-37.6.4a5.661 5.661 0 001.8 0c.495-.095.09-.173-.9-.173s-1.395.078-.9.173m33.4.005a8.899 8.899 0 002.2 0c.605-.092.11-.167-1.1-.167-1.21 0-1.705.075-1.1.167"/>
  </g>
</svg>
